<svg id="Calque_1" data-name="Calque 1" xmlns="http://www.w3.org/2000/svg" viewBox="0 0 518.58 266.6"><defs><style>.cls-1{fill:#3763ad;}.cls-2{fill:#fabd22;}</style></defs><title>Logo volontaire 8</title><path class="cls-1" d="M144.73,129.33s0,0,0,0l0,0a.91.91,0,0,1,.12-.17L145,129l.11-.1.06-.06.07-.07a4.9,4.9,0,0,1,1.37-.83l.26-.1.28-.11.63-.19a6.69,6.69,0,0,1,.74-.18,6.38,6.38,0,0,1,.68-.12l.72-.11c.12,0,.25,0,.38,0a21.37,21.37,0,0,1,2.24-.11h0c.67.5,1.34,1,2,1.49,1.31.95,2.61,1.88,3.94,2.78a130.8,130.8,0,0,0,14.26,8.46c2.47,1.27,5,2.45,7.53,3.56.76.33,7.47,2.8,7.44,3.1l0,.33-.44,5.34h0c-5.29-2.49-11.41-5.64-17.34-8.8l-3.49-1.87-1.77-1-1.65-.9c-4.23-2.31-8.11-4.47-11.19-6.2l-.6-.34-.15-.09-.44-.24-.42-.24-1.67-.95-.39-.22-.07,0a4.41,4.41,0,0,1-.43-.25l-.85-.48-.29-.17-1.13-.64-.16-.09-.16-.1-.07,0-.11-.06-.1-.06h0m50.77,26.33.7-5.81v-.09l.11-.39a73.13,73.13,0,0,0,20.46,4.14s-.16,1.92-.16,1.92l-.36,8.39,0,0c-8.67-2.82-13.66-5.74-19.24-7.62-.47-.16-1-.34-1.48-.54,0,0,0,0,0,0m32.1,11.17c1.74-1.65,3.86-3.06,5.72-4.61,2-1.7,4.06-3.43,6.07-5.17,4.27-3.74,8.3-7.72,12.56-11.47a25.15,25.15,0,0,1,4.44-3.29c2.64-1.44,5.14-1.48,8.06-1.24.07,0,.11,0,.15.1.75.85.4,2.4.37,3.4,0,1.28-.08,2.56-.14,3.83q-.19,3.84-.53,7.66c-.11,1.34-2.15,15.07-2.67,15.08a68.82,68.82,0,0,1-7.71-.6l-3.32-.28a13.19,13.19,0,0,0-2.71-.28,49.06,49.06,0,0,0,5.51-7.72c1.39-2.4,3.15-5.28,3.57-8a2.4,2.4,0,0,0,0-.93.36.36,0,0,0,0-.11,0,0,0,0,0,0,0l0,0a25.61,25.61,0,0,1-2,2.46c-.68,1-1.38,1.9-2.09,2.84-1.43,1.86-2.93,3.68-4.51,5.43-1.31,1.47-2.68,2.91-4.09,4.29-.76.75-1,1.24-2.13,1.11-2.83-.45-5.68-.79-8.5-1.29a46,46,0,0,1-6-1.16s0,0,0,0m35.48,4.28q.1-.18.21-.39c.07-.13.14-.27.2-.41l.12-.25.11-.26c.1-.23.2-.46.29-.72s.09-.24.14-.37.09-.25.13-.38.14-.39.2-.59.13-.39.2-.58.13-.42.19-.63l.32-1.09.06-.24q.19-.67.39-1.41c.19-.72.39-1.47.58-2.24,0,0,0,0,0,0,8.09.4,16.63.6,25.69.6l0,0v9.7l0,0c-11.1,0-20.46-.27-28.83-.74a0,0,0,0,1,0,0Zm.71-37.31c-.65.31-1.38.46-2,.77a12.07,12.07,0,0,1-2.67,1.12,19.18,19.18,0,0,1-3,.13c-1.73.05-3.45.07-5.18.08,0,0,0,0,0,0v0c0-1.47.65-3,.65-4.47a1.27,1.27,0,0,1,0-.2s0,0,0,0c1.2.31,3.31.72,5.75,1.21h0c2,.41,4.32.88,6.49,1.4,0,0,0,0,0,0m-13.89,4.69c.8,0,1.6,0,2.38,0h.36l1,0,.29,0c.14,0,.26,0,.39,0l.27,0a0,0,0,0,1,0,0,65.66,65.66,0,0,0-8.71,7q-2.06,2-3.9,4.14c-.63.74-3.38,3.59-3.38,4.1,0-4.7.11-9.13.17-13.83,0,0,0,0,0,0l.27.05h.07l.11,0,.17,0,.24,0,.19,0c.53.09,1.22.19,2,.28l.25,0,.43,0,.45,0h0l.76.05h.89a8.66,8.66,0,0,0,4-.66,2.18,2.18,0,0,0,.49-.37.75.75,0,0,0,.15-.16,3.94,3.94,0,0,0,.55-.79h0M303.5,162q6-.14,12-.55c23.49-1.62,46.64-6.27,69.31-12.2,11.48-3,22.86-6.34,34.19-9.81,4.85-1.48,9.64-3.13,14.42-4.78,2.37-.82,5-1.47,7.35-2.52-.87.64-1.74,1.68-2.35,2.07a56.54,56.54,0,0,1-6.77,3.31,357.81,357.81,0,0,1-63.15,22.2q-16.31,4.06-33,6.61c-2.61.4-32,3.47-32,3.75Zm138.35-30.37.17-.07s0,.06,0,.06h-.13M242.62,116.14h0c2.06-.85,5.32-2.43,5.18-2.35h0s0,1.81,0,2.71l0,1.05c0,.09,0,.18-.05.26a1.41,1.41,0,0,1-.06.22,1.29,1.29,0,0,1-.06.21,1.43,1.43,0,0,1-.08.22c-.05.12-.1.23-.16.35h0l-.2.34h0a3.71,3.71,0,0,1-.23.32,5.85,5.85,0,0,1-.4.47l-.16.16-.41.37h0l-.17.14-.26.2-.3.21-.27.18-.06,0h0l-.27.17c-.22.13-.45.26-.69.38l-.31.16-.81.38s0,0,0,0ZM140.16,135.59q3.54,2.39,7.06,4.79c8.82,6,17.44,13.22,26.95,18.12q8.15,4.22,16.37,8.29Q206.94,175,223.4,183s0,0,0,0c-35.56.27-70.88.69-70.88,1.32,0,1.27,66.27,11.43,143.22,11.43S439,185.93,439,184.37c0-.78-36-1.2-72-1.43a.06.06,0,0,0,0,0c29.6-8.13,84.14-47.24,85-48.06s9.95-6.14,10.06-6.29c-.11-1.23-.63-5.19-2.87-4.51-16.9,5.5-128.32,34.93-189.7,34.93l-2.61,0,0,0c2.3-10.13,3.44-22.46.29-24.62a2.38,2.38,0,0,0-.44-.25c2-2.25-13.23-3.8-15.17-3.95,0,0,0,0,0,0a2,2,0,0,0-.06-.66c-.21-.52-8-2.73-8.43-2.85l-1.42-.56,0-1.28v-.21l.16-1,1.47-.42c.63-.23,1.25-.49,1.86-.77a13.25,13.25,0,0,0,3.56-2.06,4.25,4.25,0,0,0,1.21-3.1v-4.92c2.92-2.45,7.09-6.76,8.72-8.46a.37.37,0,0,0-.31-.63c-7,.35-28.94-3.8-34-4.78a.39.39,0,0,0-.47.29c-.78,3.73-13.38,20.64-16,24.28a.38.38,0,0,0,.34.6c2.75-.07,10.1-1,11-1.18h0c0,.4-.19,4.39-.2,4.62,0,0,0,0,0,0a1.62,1.62,0,0,0-1.16,1.47l-.94,22.18,0,0c-36.65-11-63-29-64.06-29a.93.93,0,0,0-.23,0,5.67,5.67,0,0,0-.66.22c-.33.12-.64.26-1,.4a56.68,56.68,0,0,0-8.56,4.67c-1.62,1.09-5.51,3.16-6,5.14-.35,1.49,2.52,2.56,3.8,3.41" transform="translate(-39.91 -42.48)"/><path class="cls-2" d="M307.29,199.93c18.78,0,34,.64,34,1.44s-15.23,1.44-34,1.44-34-.65-34-1.44,15.23-1.44,34-1.44" transform="translate(-39.91 -42.48)"/><path class="cls-2" d="M248.1,203.41c5.93,0,10.73.44,10.73,1s-4.8,1-10.73,1-10.73-.44-10.73-1,4.81-1,10.73-1" transform="translate(-39.91 -42.48)"/><path class="cls-2" d="M214.59,181c-15.42.13-28.11.27-37.84.42a49.2,49.2,0,0,1-10.36-10.13,68.89,68.89,0,0,1-10.9-22.43,139.76,139.76,0,0,0,17.63,11.43c5.55,2.87,11.16,5.69,16.41,8.31,8.54,4.26,17.15,8.51,25.06,12.4" transform="translate(-39.91 -42.48)"/><path class="cls-2" d="M290.5,114c-.7,17.5-3.76,31.28-9.64,42.63-3.93.19-7.72.3-11.34.3a87.23,87.23,0,0,0,1.71-13.18c.22-5.5-.49-8.91-2.21-10.6a2,2,0,0,0-.15-.45c-.61-1.4-2.32-2.5-8.95-3.6l-.79-.12a63.09,63.09,0,0,0,.58-11.53c-.24-2.19-.46-6.33-1.21-10.46.63-.64,1.21-1.23,1.68-1.73a2.39,2.39,0,0,0,.45-2.66,2.59,2.59,0,0,0-2.35-1.45h-.13l-.82,0h-.27c-.53-1.68-1.15-3.34-1.83-5-4-9.55-10.55-15.42-19.44-17.53-.71-.17-1.43-.32-2.17-.44a36.5,36.5,0,0,0-5.84-.45c-1.24,0-2.52.05-3.84.17-14,1.21-25.27,7.25-33.53,18.07-8.86,11.62-10,28.34-3.63,41.26a294.18,294.18,0,0,1-29.64-15.5c-3.33-1.95-3.6-2.11-4.41-2.11a3.18,3.18,0,0,0-.72.09H152a7.76,7.76,0,0,0-.93.31l-.38.16a84.31,84.31,0,0,1,.84-17.87,65.3,65.3,0,0,1,14.34-31.76A78,78,0,0,1,191.9,49.64a69.3,69.3,0,0,1,30.68-7.16,71.19,71.19,0,0,1,17.82,2.3c14,3.64,26.78,12.53,36,25A72.76,72.76,0,0,1,290.5,114" transform="translate(-39.91 -42.48)"/><path class="cls-1" d="M64.34,290.89a13.36,13.36,0,0,1-1.72,4.62,2.35,2.35,0,0,0-.27,1c0,.36.09.73.09,1a.82.82,0,0,1-.27.63,2.87,2.87,0,0,1-1.54.72,13.2,13.2,0,0,1-2,.1A5.47,5.47,0,0,1,55,297.77c-1.54-1.63-2.62-7.88-3.62-11.41-.36-1.26-.18-3.71-.72-5.88s-.82-4.34-1.27-6.33-1-4-1.54-5.89-.9-3.53-1.36-5.61-.72-4.62-1.26-6.52a25.3,25.3,0,0,1-.73-4.43,6.13,6.13,0,0,0-1.45-3.35,7.94,7.94,0,0,1-1.26-3.71c-.27-1.27-.18-2.35-.36-3.62a13.46,13.46,0,0,0-1.18-3.8,4.78,4.78,0,0,1-.36-1.9c0-.73.18-1.27.18-1.81a8,8,0,0,1,.63-2.54,2.85,2.85,0,0,1,2.9-2h.45c1.45,0,2,.64,2.26,2.17a44.86,44.86,0,0,0,1.72,5.71c.73,2,1.54,4,2.72,6.69s2.26,6.43,3.71,9.6,1.9,6.33,2.62,9.23c.73,3.17,1.27,6.24,1.63,7.87.46,4.08.46,4.71.64,5.52.09.28.09.82.63.82s.63-.82,1.72-5.7c.9-3.17,2.17-9.23,3.35-13.94a80.52,80.52,0,0,1,3-8.87c.9-1.9,1-2.9,1.71-5.7s1.91-7.42,3.53-9.69,2.36-3.07,3.35-3.44a2.06,2.06,0,0,1,.73-.09,1.35,1.35,0,0,1,1.36,1.09,4.8,4.8,0,0,0,2,1.63,3.79,3.79,0,0,1,1.35,2.35,16.38,16.38,0,0,1,.19,2.17,18.68,18.68,0,0,1-1.72,7.7c-.73,1.9-1.45,4.52-2.63,8s-2.53,7.69-3.53,9.78a15.23,15.23,0,0,0-1.45,4.7,77.2,77.2,0,0,1-2.26,8.69c-1.36,3.71-.63,2.17-1.72,5-.36.9-1.18,2.26-2.08,4.16A57.47,57.47,0,0,0,64.34,290.89Z" transform="translate(-39.91 -42.48)"/><path class="cls-1" d="M122.9,259.39a4.19,4.19,0,0,1-.54,2.08,43,43,0,0,0-.27,5.89c0,1.54,0,3,.09,4.52.09,1.81.18,3.44.18,5.25s-.09,3.8-.27,5.7a21.88,21.88,0,0,1-1.09,5.89c-.54,1.54-1,3.08-1.45,4.61a11.22,11.22,0,0,1-1.26,2.81,3.53,3.53,0,0,1-2.54,2.71,5.3,5.3,0,0,0-2.44,1.45,5.6,5.6,0,0,1-4.08,1.63c-.54,0-1.08.09-1.63.09a15.1,15.1,0,0,1-6.51-1.35,3.49,3.49,0,0,0-1.36-.28H99a4.59,4.59,0,0,1-2.54-.9,25,25,0,0,1-5.79-5c-.09-.09-.18-.27-.27-.36a9.51,9.51,0,0,1-1.36-1.81c-1.54-2.54-3-4.17-3.62-6.7a67.71,67.71,0,0,1-1.63-10.41c-.09-1-.09-1.9-.09-2.8,0-3.35.27-6.43.27-9.87v-1.81c0-2.35-.18-4.62-.18-7a24.42,24.42,0,0,1,.63-5.07,50.11,50.11,0,0,1,5.8-14.66,5,5,0,0,1,1.35-2.44c1.09-1.36,2.36-2.36,3.35-3.8A3.79,3.79,0,0,1,96.2,227a13.27,13.27,0,0,0,2.9-1.72,1.68,1.68,0,0,1,1.26-.45h.09c.37,0,.73.09,1.09.09a1.53,1.53,0,0,0,.63-.09h.28c.63,0,.9.81,1.44.81h.28a2.4,2.4,0,0,1,1.08-.27,4.72,4.72,0,0,1,1,.18,21.88,21.88,0,0,1,8.23,5.43c1.09,1.09,2.18,1.9,2.63,3.44a4.5,4.5,0,0,0,.81,1.45,8.87,8.87,0,0,1,1.18,2.72,25.56,25.56,0,0,0,1.63,4.34,10.75,10.75,0,0,1,1.08,4.43,5.68,5.68,0,0,0,.28,1.72,12.35,12.35,0,0,1,.63,4.44v1.63a24.39,24.39,0,0,0,.18,3.62Zm-11.22-9.86c-.73-3-1.36-6.16-2.08-9.23-.28-1.09-.55-2.09-.82-3.08a6.09,6.09,0,0,0-4.52-4.44,12.57,12.57,0,0,0-2.36-.36,3,3,0,0,0-2.8,1.45,30,30,0,0,0-3.8,7.42c-.82,2.44-1.09,5.16-1.81,7.69a29.5,29.5,0,0,0-1,6.34c-.18,2.9-.36,6-.36,8.87v3.08a75,75,0,0,0,.36,7.78,61.2,61.2,0,0,0,1.27,9.05,6,6,0,0,0,1.45,2.72,19.17,19.17,0,0,0,2.53,2,7.69,7.69,0,0,0,4.25,1.63,6.72,6.72,0,0,0,4.53-1.9,9.88,9.88,0,0,0,2.53-4.62,77.62,77.62,0,0,0,2.63-14.57c.09-.82.09-1.54.18-2.35v-.19c0-3.71.36-7.6.36-11.76A23,23,0,0,0,111.68,249.53Z" transform="translate(-39.91 -42.48)"/><path class="cls-1" d="M130.05,299.22c-1.81-1.9-2.63-4.35-3.71-6.7a2.3,2.3,0,0,1-.18-1.09v-.72c.36-4,.63-8.06,1.08-12s.64-7.78.82-11.67c.09-2.36.36-4.89.45-7.25.09-2.08.27-4.16.36-6.24a71,71,0,0,1,1.54-10.68c.81-4,1.72-7.87,2.53-11.86a3.5,3.5,0,0,1,1.72-2.44,22.14,22.14,0,0,1,3.17-1.81,8,8,0,0,1,1.36-.45h.36a1.24,1.24,0,0,1,1.27,1.26,24.22,24.22,0,0,1,.54,4.71c-.27,1.9-.45,4.16-.81,6.25-.55,3.07-1,6.24-1.36,9.32-.27,2.62-.63,5.43-.63,8.05a22.29,22.29,0,0,0,.09,2.45c.18,2.08.36,4.34.45,6.42.09,3.26.09,6.61.09,9.87v.27c0,2.44-.36,5.07-.36,7.51v.91c0,.45-.18.9-.18,1.35V285a1.7,1.7,0,0,0,1.44,1.9,37.58,37.58,0,0,0,5.52,1.17c1.36.28,2.54.46,3.9.64a10.25,10.25,0,0,0,2.71,0c.18,0,.36-.09.54-.09a2.22,2.22,0,0,1,1.81.9,53.48,53.48,0,0,1,3.63,4.26,16.52,16.52,0,0,0,1.53,1.9,6,6,0,0,1,1.63,4.16v.54a2.05,2.05,0,0,1-.9,1.72,10.6,10.6,0,0,1-6.43,2.18,9.37,9.37,0,0,1-2.71-.37c-1.72-.45-3.26-.72-4.89-1.26a3.2,3.2,0,0,0-.91-.18h-.09c-.18,0-.18.09-.36.09a17.69,17.69,0,0,1-4.7-1.09c-1.91-.54-4.26-.54-6.34-1.09h-.18c-.36,0-.82.18-1.18.18A3.44,3.44,0,0,1,130.05,299.22Z" transform="translate(-39.91 -42.48)"/><path class="cls-1" d="M199.28,259.39a4.19,4.19,0,0,1-.54,2.08,43,43,0,0,0-.27,5.89c0,1.54,0,3,.09,4.52.09,1.81.18,3.44.18,5.25s-.09,3.8-.27,5.7a21.5,21.5,0,0,1-1.09,5.89c-.54,1.54-1,3.08-1.44,4.61a11.62,11.62,0,0,1-1.27,2.81,3.52,3.52,0,0,1-2.54,2.71,5.3,5.3,0,0,0-2.44,1.45,5.58,5.58,0,0,1-4.07,1.63c-.55,0-1.09.09-1.63.09a15.14,15.14,0,0,1-6.52-1.35,3.45,3.45,0,0,0-1.36-.28h-.72a4.56,4.56,0,0,1-2.53-.9,24.88,24.88,0,0,1-5.8-5c-.09-.09-.18-.27-.27-.36a10,10,0,0,1-1.36-1.81c-1.53-2.54-3-4.17-3.62-6.7a67.69,67.69,0,0,1-1.62-10.41,27.05,27.05,0,0,1-.1-2.8c0-3.35.28-6.43.28-9.87v-1.81c0-2.35-.18-4.62-.18-7a24.42,24.42,0,0,1,.63-5.07,50.09,50.09,0,0,1,5.79-14.66,5,5,0,0,1,1.36-2.44c1.08-1.36,2.35-2.36,3.35-3.8a3.65,3.65,0,0,1,1.26-.82,13,13,0,0,0,2.9-1.72,1.71,1.71,0,0,1,1.27-.45h.09c.36,0,.72.09,1.08.09a1.56,1.56,0,0,0,.64-.09h.27c.63,0,.9.81,1.45.81h.27a2.41,2.41,0,0,1,1.09-.27,4.64,4.64,0,0,1,1,.18,21.91,21.91,0,0,1,8.24,5.43c1.08,1.09,2.17,1.9,2.62,3.44a4.35,4.35,0,0,0,.82,1.45,9.1,9.1,0,0,1,1.17,2.72,26.44,26.44,0,0,0,1.63,4.34,10.6,10.6,0,0,1,1.09,4.43,5.67,5.67,0,0,0,.27,1.72,12.35,12.35,0,0,1,.63,4.44v1.63a24.39,24.39,0,0,0,.18,3.62Zm-11.22-9.86c-.72-3-1.36-6.16-2.08-9.23-.27-1.09-.54-2.09-.81-3.08a6.12,6.12,0,0,0-4.53-4.44,12.6,12.6,0,0,0-2.35-.36,3,3,0,0,0-2.81,1.45,30,30,0,0,0-3.8,7.42c-.82,2.44-1.09,5.16-1.81,7.69a30.14,30.14,0,0,0-1,6.34c-.18,2.9-.36,6-.36,8.87v3.08a75,75,0,0,0,.36,7.78,64,64,0,0,0,1.27,9.05,6,6,0,0,0,1.45,2.72,19.85,19.85,0,0,0,2.53,2,7.69,7.69,0,0,0,4.26,1.63,6.67,6.67,0,0,0,4.52-1.9,10,10,0,0,0,2.54-4.62,78.42,78.42,0,0,0,2.62-14.57c.09-.82.09-1.54.18-2.35v-.19c0-3.71.36-7.6.36-11.76A23,23,0,0,0,188.06,249.53Z" transform="translate(-39.91 -42.48)"/><path class="cls-1" d="M248.06,274.69c0,.9-.09,1.63-.09,2.53,0,2.9.09,5.89.28,8.78,0,1.09-.1,2.36-.1,3.44,0,2.45-.18,4.71-.18,7.15v1.18a12.92,12.92,0,0,0,.37,1.81v.09c0,.63-.46,2.08-.46,2.53,0,1.54-.81,1.45-2.17,2.54a15.59,15.59,0,0,0-2.35,2,1.74,1.74,0,0,1-1.45.54c-.18,0-.27-.09-.45-.09a7.39,7.39,0,0,1-3.89-1.36,18.46,18.46,0,0,1-2.18-1.63,17.52,17.52,0,0,1-3.44-3.34,8.64,8.64,0,0,1-1.26-2.18,129,129,0,0,1-5.16-11.94,10,10,0,0,1-.46-2.81,6.55,6.55,0,0,0-.27-1.27,38,38,0,0,1-2.35-7.69c-.36-1.36-.72-2.53-1.18-3.8a99.31,99.31,0,0,0-5-11.41,8.75,8.75,0,0,1-.64-1.72c-.45-1.35-.9-2.71-1.45-4.07h-.45c-.36,0-.63.18-.63.73v.63a11.26,11.26,0,0,0,.27,2.44,39.76,39.76,0,0,1,.27,4.62c.09,2.17.09,4.52.27,6.7.36,4.07.36,8.14.64,12.22.36,4.88.36,9.68.63,14.57.18,2.89.36,5.88.54,8.78v.63a3.16,3.16,0,0,1-.09.91c-.27,1-.63,1.35-1.54,1.44a4.55,4.55,0,0,0-2.17.82,2.26,2.26,0,0,1-1.54.63,3.4,3.4,0,0,1-1.72-.63,8.63,8.63,0,0,1-1.54-1.54,8.28,8.28,0,0,0-1.17-1.27c-1.63-1.35-2.36-3.07-3.26-4.88a2.85,2.85,0,0,1-.27-1.18,2.42,2.42,0,0,1,.45-1.27v-.09a1.48,1.48,0,0,1,.18-.9,6.63,6.63,0,0,0,.91-3.71v-1c-.09-1.9-.09-3.8-.09-5.7v-.55c0-1.81.18-3.53.18-5.34V277c0-1.18-.09-2.35-.09-3.53v-.36c0-1.45.27-2.72.27-4.16v-.64c-.09-1.26-.09-2.44-.09-3.71v-5.88c0-2.63.09-5.25.18-7.88v-2.08a14.64,14.64,0,0,0-.18-2.8c0-.18-.09-.46-.09-.64,0-.45.09-.9.09-1.35v-.28a9.48,9.48,0,0,0-.82-3.53,1.3,1.3,0,0,1-.18-.63v-.09a17,17,0,0,1,1.09-6.06,5.81,5.81,0,0,1,5.25-3.26,5.67,5.67,0,0,1,2.08.36,11.31,11.31,0,0,1,1.81.9,2.29,2.29,0,0,1,1.09,1.54c1.35,4.08,2.53,8.24,4.25,12.13,1.27,2.81,2.17,5.79,3.26,8.69.27.81.63,1.54,1,2.35,1.81,3.35,2.9,7,4.35,10.41.81,1.9,1.63,4,2.44,5.89,1.09,2.71,2.35,5.34,3.53,8a9.18,9.18,0,0,0,.63,1.36c.1.27.28.54.55.54h.18c.36-.09.36-.45.36-.81a21.05,21.05,0,0,0,.27-2.36v-.36c0-.27-.09-.72-.09-1,0-1.54.27-2.9.27-4.44s.27-3.08.46-4.71c.18-2.17.72-4.52.9-6.69.36-4.89,1.54-9.51,1.72-14.39.09-2.36.82-4.71.91-7.06.09-1.36.18-2.63.18-4a19.37,19.37,0,0,0-.46-4,2.55,2.55,0,0,1-.36-1.36,10.16,10.16,0,0,1,.18-1.63,1.87,1.87,0,0,1,1.81-1.44h.73c1,0,1.9.09,2.89.09h.82c1.9,0,2.26.72,2.89,2.8a3.49,3.49,0,0,1,.28,1.36v2a10.77,10.77,0,0,0,.27,1.81,9.62,9.62,0,0,1,.18,2.26v.64c-.09,1.9-.09,4-.09,5.88a3.34,3.34,0,0,1-.18.91,19.78,19.78,0,0,0-.36,4c0,1.54.09,3.17.09,5.07v.72C248.15,263,248.06,268.17,248.06,274.69Z" transform="translate(-39.91 -42.48)"/><path class="cls-1" d="M270.72,302.13h-.45c-1,0-1.81-.54-2.8-.63h-.28c-.63,0-1.44.18-2.17.18a2.56,2.56,0,0,1-1.63-.54,4.78,4.78,0,0,1-.9-3.35,35.08,35.08,0,0,1,.36-3.62c.36-3,.54-6.06.9-9.05.46-4,.82-7.88,1.54-11.77.09-1.9.18-3.71.18-5.61v-1.27c0-2.08.19-4.34.37-6.42.18-2.27.45-4,.72-5.89a5.26,5.26,0,0,0,.36-1.62c0-.09-.09-.28-.09-.37a1.3,1.3,0,0,0-1.45-1.35h-.63c-3.17,0-7.87-.64-11.22-.82-1.36-.09-1.18-.81-1.81-2a3.18,3.18,0,0,1-.46-1.54c0-.72.37-1.08.46-2.17a4,4,0,0,1,.63-2c.54-.82.09-1.36,1.09-1.63a18.59,18.59,0,0,1,4.61-.45h1.18a11.61,11.61,0,0,0,1.72.09c1.71,0,3.4-.48,5.13-.48,1,0,.58-3.79.5-6.52-.06-2.28-.19-4.43,0-6.79.1-1.53,0,0,.12-1.23.17-1.94,0-2.63.55-3.71a4,4,0,0,1,2.88-.84c1,0,4.59-.24,4.89.68a8.67,8.67,0,0,1,.48,2.57c0,1.62-.09,3.08-.21,5.38-.25,4.67-.34,10.38.36,10.48a19.37,19.37,0,0,0,2.26.28c.73,0,1.54-.09,2.27-.09a26.64,26.64,0,0,1,3.9.27c.45.18,3.17,0,3.17.54.9,0,1.17.72,1.17,1.63,0,.45-.18,1-.18,1.45,0,2.62-.36,8.23-3.17,8.32-1.63-.18-4.8-.18-6.34-.72-.91-.36-2.17-.45-3.08-.72a5.47,5.47,0,0,0-1.08-.19c-.82,0-1.18.37-1.27.91a35.24,35.24,0,0,0-.27,4.34v2.36a23.77,23.77,0,0,1-.09,2.53c.09,1,.09,2.08.09,3.08,0,2.26-.09,4.62-.09,6.88.09,1.9.18,3.8.18,5.7,0,2.62-.09,5.16-.09,7.78v1.27c0,2.63,0,5.43.18,8.06,0,.63.09,1.35.09,2v.9c0,2.54-.09,5.07-2.08,5.61A.7.7,0,0,1,270.72,302.13Z" transform="translate(-39.91 -42.48)"/><path class="cls-1" d="M305.35,275.23h-.54A74,74,0,0,1,297,276.5c-1,.09-1.45.72-1.54,1.9a100.59,100.59,0,0,1-1.72,13.85,7.83,7.83,0,0,1-.36,1.36,1.65,1.65,0,0,1-1.63,1h-.45c-2-.18-3.35-1.54-4.61-2.9a26.29,26.29,0,0,1-4.17-5.79,4.48,4.48,0,0,1-.54-2.08c0-.18.09-.18.09-.36s-.09-.36-.09-.54a2.62,2.62,0,0,1,.45-1.63,9.35,9.35,0,0,0,2.08-5c.82-5.43,2.45-10.59,3.89-15.93,1-3.71,1.45-7.51,2.63-11.22,1.09-3.35,1.63-6.88,2.44-10.23a47.79,47.79,0,0,1,4.08-11.23,3,3,0,0,1,2.8-1.81,3.26,3.26,0,0,1,3,2,10.66,10.66,0,0,1,1.27,3.8,69,69,0,0,0,2.17,10.68,47,47,0,0,1,1.63,7c.54,3.25,1.45,6.42,2.26,9.59.9,3.89,1.81,7.78,2.44,11.77.73,4.61,2.45,8.87,3.53,13.39a12,12,0,0,1,.37,1.63c0,.18.09.36.09.54,0,1.27-.73,1.81-1.9,1.81h-.73c-1.27-.27-2.17-.81-3.35-1.17a2.06,2.06,0,0,1-1.26-1.45,26.87,26.87,0,0,1-1-3,50.36,50.36,0,0,0-2.26-6.15C306.25,275.5,306,275.23,305.35,275.23Zm-8.42-5.61c0,.54.36.91,1.27.91h.09c1.72-.37,3.71-.73,5.7-1.27.64-.18,1-.45,1-1.09a1.76,1.76,0,0,0-.09-.63c-.55-2.26-1-4.71-1.72-6.88a56.35,56.35,0,0,1-1.54-6.61c-.27-2.08-.54-4.25-.91-6.33-.09-.37-.09-.64-.54-.64s-.45.27-.54.64c-.18,1.17-.45,2.26-.55,3.44-.09,3-.54,6-.9,9s-.54,6.24-1.18,9.32C297,269.53,296.93,269.53,296.93,269.62Z" transform="translate(-39.91 -42.48)"/><path class="cls-1" d="M327.07,241.87c2,0,2.35,1.89,3.53,3,.54.63.81,2.27.81,4.79v1.64a13.53,13.53,0,0,0,.09,2.27,72.31,72.31,0,0,1,.36,8.57c0,3.15-.09,6.81-.36,11,0,.38-.09,2-.09,2.53,0,1.51.27,13.62.27,15v.25a30.17,30.17,0,0,1-.36,4.92c-.09.51-.18.89-.18,1,0,.38.36,1.26.36,1.77,0,2.27-1,3.4-3.07,3.4a21.88,21.88,0,0,1-7-2c-1.18-.63-1.45-2.77-1.45-5.42v-4.41c.09-1.39.18-2.15.18-2.4s-.09-1.51-.09-1.89c0-.13.09-1,.09-1.26.45-3.4.36-7.44.54-11,.09-1.52.18-2.52.18-3v-.5c.09-5.43.18-8.83.18-10.22v-.63c0-.5-.18-2.77-.18-3.28v-.12c0-1.64-.72-6.06-.9-7.32,0-.63.09-1.64.09-2.14,0-1.77.27-2.9.72-3.41.64-.37.73-1.26,1.54-1.26C322.72,241.74,326.52,241.87,327.07,241.87Z" transform="translate(-39.91 -42.48)"/><path class="cls-1" d="M378.38,293.7a3,3,0,0,1,.19.81c0,.54-.28.72-.91,1.09a7.7,7.7,0,0,1-3.89,1.08,9.73,9.73,0,0,1-2.72-.54c-1.72-.63-3.44-1.18-4.7-2.63a19.51,19.51,0,0,0-2.9-2.44,5.32,5.32,0,0,1-1.54-1.9,12,12,0,0,0-1.08-1.81c-1.63-2-2.54-4.53-3.71-6.88-1.09-2.17-2.09-4.25-3-6.42-.45-.73-1-1.45-1.45-2.27-1.36-2-3.17-6.06-5-7.69-.63,0-.54,2.8-.63,3.53-.27,4-.63,8.05-.63,12v1c0,2.27-.28,4.62-.37,6.88-.09,1.72-.18,3.35-.18,5.07v1.63c0,2,.36,2.35.36,4.16v.45c0,.82-1.08,3.35-1.9,3.53a3.34,3.34,0,0,1-1,.1h-1.09c-.81,0-1.63.09-2.44.09a8.1,8.1,0,0,1-1.54-.19A5.24,5.24,0,0,1,337,302c-1.17-.54-1.35-1.9-1.35-3.53,0-.9.09-1.9.09-2.8v-.09a2.19,2.19,0,0,1-.37-1.09c0-.09.09-.36.09-.45a14.09,14.09,0,0,0,.28-2.81v-2.44c.09-1.9.18-3.53.36-5.43.27-2.45.54-5.07.72-7.51.18-1.91.45-4,.45-5.89.09-2.53.46-5.07.55-7.51.09-1.9.09-4,.36-5.88.27-1.63.18-3.17.36-4.8a73.49,73.49,0,0,0,.64-8.87c0-3.71.54-7.33.63-11a16,16,0,0,1,.81-4.53,3,3,0,0,1,1.09-1.45,6.51,6.51,0,0,1,3.08-1c.27,0,.45.09.72.09a6.91,6.91,0,0,0,1.36.09,12.47,12.47,0,0,0,1.81-.18,50.38,50.38,0,0,1,8.51,0,26.26,26.26,0,0,1,3.71.45,22,22,0,0,1,7.69,3.8c.63.09.91.55,1.36.91a19.7,19.7,0,0,1,5.7,7.06,50.5,50.5,0,0,1,2.17,5.07,9.72,9.72,0,0,1,.54,3.16,8.37,8.37,0,0,1-1.26,4.8,11.68,11.68,0,0,1-3.71,3.89,17.76,17.76,0,0,0-3.17,2.72,10.1,10.1,0,0,1-2.9,1.9l-3.53,1.9a5.14,5.14,0,0,0-1.44,1c-.64.64-1.63.37-1.63,1.09V263a68.31,68.31,0,0,1,5.25,9.42,45.78,45.78,0,0,0,4.52,8,8,8,0,0,1,1,1.9C374.22,285.82,377,289.26,378.38,293.7Zm-14.3-47.52a4.48,4.48,0,0,0,1.81-3.35,3.63,3.63,0,0,0-.27-1.27c-.45-1.63-.36-3.35-1.35-4.79a11.28,11.28,0,0,0-5.62-4.53,18.74,18.74,0,0,0-6.24-.91H351l-1.54.1a1.56,1.56,0,0,0-1.54,1.81v.45a13.43,13.43,0,0,1,.09,1.9c0,1.54-.09,3.08-.09,4.61,0,2.81-.36,5.62-.36,8.42v3.8c0,.73.27,1,.73,1a2.29,2.29,0,0,0,.63-.18,7.14,7.14,0,0,1,1.9-.82,3,3,0,0,0,1.63-.72,3,3,0,0,1,1.54-.45c1.9-.37,3.89-.55,5.7-1.72A50.47,50.47,0,0,0,364.08,246.18Z" transform="translate(-39.91 -42.48)"/><path class="cls-1" d="M380.28,279c0-1.63.09-3.16.09-4.79v-1.9c0-3,0-6.07.19-9.06.18-3.53.54-7.15.9-10.68.18-1.72.27-3.25.45-5,.09-.55.18-.91.27-1.45a8.85,8.85,0,0,0,.09-1.54,9,9,0,0,0-.18-1.54,2.49,2.49,0,0,1-.09-.81v-.37c0-1.35-.09-2.71-.09-3.89a11.67,11.67,0,0,1,.09-1.81,2.79,2.79,0,0,1,2.18-2.35,2.93,2.93,0,0,1,1.17-.36,1.52,1.52,0,0,1,1,.36,1.26,1.26,0,0,0,.81.27c1.72.27,3.26.82,5,1,1,.09,2,.45,3.08.45h.9a7.59,7.59,0,0,1,3.35,1,3.61,3.61,0,0,1,1.09.91,14.61,14.61,0,0,1,4.25,3.53,2.35,2.35,0,0,1,.63,1.54v.18c0,1.27-.36,1.45-1.53,2a4.75,4.75,0,0,1-2.18.45,13.5,13.5,0,0,1-1.9-.09c-1.17-.09-2.17-.27-3.35-.45a6.63,6.63,0,0,1-1.26-.36c-1.9-.64-3.62-1.18-5.52-1.72a1.84,1.84,0,0,0-.64-.09c-.45,0-.63.27-.63,1v.09c0,5.16-.18,9.87-.18,14.76a5.34,5.34,0,0,0,.27,1.72c.9.18,2.08.72,3.44.9.18,0,.45-.09.63-.09a1.77,1.77,0,0,1,.91.27,1.34,1.34,0,0,1,.63.27c2.17,1.63,5,.82,6.34,3.17a2,2,0,0,1,.09.82c0,1.53-.91,3.89-1.81,4.52a2.44,2.44,0,0,1-1.45.54,5.35,5.35,0,0,1-1.18-.18c-1.63-.54-3.17-.9-4.79-1.44a10.34,10.34,0,0,1-1.72-.73,2.94,2.94,0,0,0-.73-.18c-.36,0-.45.36-.45.91v.81c0,.91,0,1.9.09,2.81.18,1.9.27,3.62.27,5.52,0,1,.09,1.9.09,2.89V281a1.6,1.6,0,0,0,.36.91c.09,0,.18.09.28.09h8.23a8.8,8.8,0,0,0,3.08-.27.33.33,0,0,1,.27-.09,1.28,1.28,0,0,1,.54.18,1.76,1.76,0,0,1,.46.36c1.08.91.9,1.09,1.44,2.44s.28,1.18,1.09,2.36a9.55,9.55,0,0,1,1.27,2.26,1.14,1.14,0,0,1,.09.54,5.26,5.26,0,0,1-.73,1.9c-.27.55-.9.55-1.44.64a26.22,26.22,0,0,1-3.72.45c-2.71.27-5.34.91-8.05,1.09-.63,0-1.18.09-1.81.09h-.36c-1.36,0-3.62,0-4.62-1-3-3.26-4.34-5.43-4.8-10.77C380.37,281.11,380.28,280.12,380.28,279Z" transform="translate(-39.91 -42.48)"/><path class="cls-1" d="M452,291.89a34,34,0,0,0-.72-6.79c-.64-3-1.27-6-2-9a36,36,0,0,0-1.63-5.8,51.25,51.25,0,0,1-1.54-5.43c-.82-2.71-1.36-5.52-2.26-8.14a.31.31,0,0,0-.09-.18c-.19-.37-.09-.91-.55-.91h-.09a.58.58,0,0,0-.45.64v.45c-.09.36-.18.63-.27,1a4.68,4.68,0,0,1,.18,1.09c0,.36-.09.72-.09,1.09v.72a6.49,6.49,0,0,0,.27,2.26,4.54,4.54,0,0,1,.18,1.54v1.81c.09,1.36.09,2.63.09,4,0,2.9-.09,5.89-.09,8.78v10.23c0,1.45-.09,2.81-.18,4.25,0,.55-.09,1.18-.09,1.72a13.71,13.71,0,0,0,.18,1.91v.45a4.72,4.72,0,0,1-3,4.43,2.49,2.49,0,0,1-.81.09h-1a7.85,7.85,0,0,1-2.89-.54,1.44,1.44,0,0,1-1.18-1.09,11.26,11.26,0,0,1-1-4.25v-.63c0-2.63.27-5.16.27-7.79v-1.9c0-3.35.36-6.61.54-10,.09-1.36.27-2.72.27-4.08,0-2.62.45-5.16.54-7.78.09-5.34.46-10.68.64-16v-.54a2.83,2.83,0,0,0-.36-1.72,2.93,2.93,0,0,1-.37-1.54c0-1-.09-1.9-.18-2.9v-.9a15.34,15.34,0,0,1,.82-5c.09-.36.27-.54.36-.91a5.54,5.54,0,0,1,3.08-4,2.15,2.15,0,0,1,1.08-.36,1.41,1.41,0,0,1,1.09.63,7.37,7.37,0,0,0,2.53,1.9,3.45,3.45,0,0,1,1.54,2.27c.36,1.08.73,2.17,1,3.34,1.45,5.25,2.8,10.32,4.25,15.57,1.36,4.71,2.54,9.32,3.89,14,.64,2.17,1.09,4.35,1.54,6.52a1.67,1.67,0,0,0,.18.63c.09.36.27.73.73.73s.63-.37.72-.64c.54-1.27,1.09-2.53,1.54-3.89a28.63,28.63,0,0,1,2.08-4.8,54.1,54.1,0,0,0,3.8-9.23,28,28,0,0,1,1.45-3.44,61.62,61.62,0,0,0,3.44-10.68c.45-1.9.9-3.71,1.18-5.61s.45-3.53.63-5.43a21.06,21.06,0,0,1,1.54-5.7.86.86,0,0,1,.9-.55c.09,0,.09.1.28.1a5,5,0,0,1,1.81.9l2,.54a1.94,1.94,0,0,1,1.63,1.72c.36,2.36,1.26,4.71,1.44,7.06A12.47,12.47,0,0,1,481,238c.1,3.35.19,6.79.37,10.14a70.06,70.06,0,0,0,.45,7.51,8.35,8.35,0,0,1,.09,1.54v1.18a5.13,5.13,0,0,0,.09,1.17c.36,2.81.27,5.71.72,8.42.82,5.34.82,10.68,1.91,15.93a10.09,10.09,0,0,1,.18,1.72v1.18a6.53,6.53,0,0,0,.18,1.9c.27,1,.36,1.9.54,2.89a6.88,6.88,0,0,1,.81,2.63c.37,2.35.64,4.8.91,7.15V302a2.6,2.6,0,0,1-1.63,2.54,2.87,2.87,0,0,0-1.36,1.35A2.5,2.5,0,0,1,482,307h-.54a9.49,9.49,0,0,1-3.08-1,2.22,2.22,0,0,1-1.18-1.63,42.67,42.67,0,0,1-.63-4.89v-.82a13.46,13.46,0,0,1,.27-2,2.49,2.49,0,0,0,.09-.81.81.81,0,0,0-.09-.45,4,4,0,0,1-.18-1.45,8.87,8.87,0,0,1,.18-1.54,1.14,1.14,0,0,0,.09-.54,3.2,3.2,0,0,0-.18-.91c-.63-2.26-.81-4.71-1.45-7-.27-.9-.09-2-.45-2.9a3.79,3.79,0,0,1-.63-2.17c-.18-2.53-.82-5.16-1.09-7.69-.18-2.08-.27-4.35-.45-6.43-.27-2.53.09-5.25-.45-7.78,0-.18-.1-.45-.1-.63a8.88,8.88,0,0,1,.19-1.54,3,3,0,0,0-.82-.37c-.27,0-.27.19-.45.64a26.87,26.87,0,0,1-2.17,5.25,44.78,44.78,0,0,0-3.9,9.05,13.66,13.66,0,0,1-1.08,2.35,88.85,88.85,0,0,0-4.26,12.76,20.55,20.55,0,0,0-.72,4.71,8.14,8.14,0,0,0,.45,2.9,2.63,2.63,0,0,1,.18.81,1.8,1.8,0,0,1-.72,1.54,1.92,1.92,0,0,0-.81,1.09,1.93,1.93,0,0,1-1.72,1.63c-.46.54-.82,1.08-1.27,1.62a1.53,1.53,0,0,1-1.18.55,1.75,1.75,0,0,1-1.36-.91,3.77,3.77,0,0,1-.36-1.35,17.13,17.13,0,0,1-.27-3.08c0-.36.09-.64.09-1Z" transform="translate(-39.91 -42.48)"/><path class="cls-1" d="M489.16,279c0-1.63.09-3.16.09-4.79v-1.9c0-3,0-6.07.18-9.06.18-3.53.54-7.15.9-10.68.18-1.72.27-3.25.46-5,.09-.55.18-.91.27-1.45a8.85,8.85,0,0,0,.09-1.54,9,9,0,0,0-.18-1.54,2.49,2.49,0,0,1-.09-.81v-.37c0-1.35-.09-2.71-.09-3.89a11.67,11.67,0,0,1,.09-1.81,2.78,2.78,0,0,1,2.17-2.35,2.93,2.93,0,0,1,1.17-.36,1.51,1.51,0,0,1,1,.36,1.26,1.26,0,0,0,.81.27c1.72.27,3.26.82,5,1,1,.09,2,.45,3.08.45h.9a7.55,7.55,0,0,1,3.35,1,3.49,3.49,0,0,1,1.09.91,14.48,14.48,0,0,1,4.25,3.53,2.31,2.31,0,0,1,.64,1.54v.18c0,1.27-.36,1.45-1.54,2a4.73,4.73,0,0,1-2.17.45,13.36,13.36,0,0,1-1.9-.09c-1.18-.09-2.18-.27-3.35-.45a6.52,6.52,0,0,1-1.27-.36c-1.9-.64-3.62-1.18-5.52-1.72a1.76,1.76,0,0,0-.63-.09c-.46,0-.64.27-.64,1v.09c0,5.16-.18,9.87-.18,14.76a5.34,5.34,0,0,0,.27,1.72c.91.18,2.08.72,3.44.9.18,0,.45-.09.64-.09a1.74,1.74,0,0,1,.9.27,1.34,1.34,0,0,1,.63.27c2.18,1.63,5,.82,6.34,3.17a2,2,0,0,1,.09.82c0,1.53-.91,3.89-1.81,4.52a2.42,2.42,0,0,1-1.45.54,5.45,5.45,0,0,1-1.18-.18c-1.62-.54-3.16-.9-4.79-1.44a10.34,10.34,0,0,1-1.72-.73,2.75,2.75,0,0,0-.73-.18c-.36,0-.45.36-.45.91v.81c0,.91,0,1.9.09,2.81.18,1.9.27,3.62.27,5.52,0,1,.09,1.9.09,2.89V281a1.61,1.61,0,0,0,.37.91c.09,0,.18.09.27.09h8.23a8.8,8.8,0,0,0,3.08-.27.33.33,0,0,1,.27-.09,1.37,1.37,0,0,1,.55.18,1.58,1.58,0,0,1,.45.36c1.08.91.9,1.09,1.45,2.44s.27,1.18,1.08,2.36a9.21,9.21,0,0,1,1.27,2.26,1.14,1.14,0,0,1,.09.54,5.42,5.42,0,0,1-.72,1.9c-.28.55-.91.55-1.45.64a26.26,26.26,0,0,1-3.71.45c-2.72.27-5.34.91-8.06,1.09-.63,0-1.17.09-1.81.09h-.36c-1.36,0-3.62,0-4.62-1-3-3.26-4.34-5.43-4.79-10.77C489.25,281.11,489.16,280.12,489.16,279Z" transform="translate(-39.91 -42.48)"/><path class="cls-1" d="M532.06,273.06c-.73,0-1.09.45-1.18,1.36v.63a19.06,19.06,0,0,1,.09,2.26c0,2.27-.27,4.71-.36,7,0,.73-.09,1.54-.09,2.27,0,1.62.09,3.16.09,4.61a17.42,17.42,0,0,1-.09,2.17c-.27,2.81-.55,5.62-.55,8.42v.63a2.15,2.15,0,0,1-1.81,2.45c-2.08.81-3.35,1.08-5.34,2a2.66,2.66,0,0,1-1.17.18,3.18,3.18,0,0,1-3.17-3.08c-.09-.9-.09-1.81-.09-2.71s.09-1.9.09-2.9c0-.54-.09-1.08-.09-1.63V294.6c0-1,0-2-.09-3v-.45c0-.72.09-1.54.09-2.26v-2.72c0-2.08.09-4.25.09-6.33v-1.36c0-4.43-.18-8.78-.27-13.21v-.91c.09-1.18.09-2.17.09-3.35,0-2.26-.09-4.7-.09-7V252c0-1.09-.36-2.08-.36-3.17v-.27c.18-3.8.54-7.78.9-11.58.27-2.72-.63-6,2.72-6a22.94,22.94,0,0,0,4.34-.63,3.55,3.55,0,0,1,1.18-.18c.36,0,.81.09,1.26.09a3.88,3.88,0,0,0,1.09-.18,6.3,6.3,0,0,1,1.81-.27c.81,0,1.54.09,2.26.09a12.2,12.2,0,0,1,1.81.18,23,23,0,0,1,10.23,4.52c.91.73,2,1.18,2.9,1.81a25.3,25.3,0,0,1,8.69,9.78,11.43,11.43,0,0,1,1.35,4.07c0,.73.09,1.45.09,2.17a14,14,0,0,1-1.81,7.79c-.63,1.08-1.17,2.08-1.9,3.16a6.73,6.73,0,0,1-2.71,2.36c-1.9,1.08-3.62,2.62-5.52,3.8a20.59,20.59,0,0,1-8.15,3.08c-1.72.18-4.34.45-6.06.45h-.27Zm-.28-9.23a1,1,0,0,0,.46-.18c1.72-1.09,7.51-2,8.41-3.9a21.06,21.06,0,0,0,2.54-7.87,4.29,4.29,0,0,1,.36-1.45,7.94,7.94,0,0,0,.45-3.26v-.27a4,4,0,0,0-1.81-3.53c-2.17-1.63-8.87-2.35-11.4-2.71h-.27c-.82,0-1.09.45-1.18,1.45v.36c0,1.17.36,2.17.45,3.35.18,2.44.55,5,.64,7.42,0,2.08.36,4.16.36,6.24v3.08C530.88,263.28,531.33,263.83,531.78,263.83Z" transform="translate(-39.91 -42.48)"/><path class="cls-2" d="M319.74,234.41c-.82-.72.09-2.62.09-2.71.63-1.9,1.81-2.54,3.25-3.44a23.41,23.41,0,0,1,3.53-.27c1.91,0,3.81,4.43,3.81,5.79,0,2.08-2.09,3.62-4.44,3.62C324.53,237.4,321.73,236.22,319.74,234.41Z" transform="translate(-39.91 -42.48)"/></svg>